<?xml version="1.0" ?><svg enable-background="new 0 0 512 512" id="Layer_1" version="1.1" viewBox="0 0 512 512" xml:space="preserve" xmlns="http://www.w3.org/2000/svg" xmlns:xlink="http://www.w3.org/1999/xlink"><g><g><linearGradient gradientUnits="userSpaceOnUse" id="SVGID_1_" x1="0.0000038" x2="512" y1="256" y2="256"><stop offset="0" style="stop-color:#8DC63F"/><stop offset="1" style="stop-color:#76B83F"/></linearGradient><circle cx="256" cy="256" fill="url(#SVGID_1_)" r="256"/><linearGradient gradientUnits="userSpaceOnUse" id="SVGID_2_" x1="42.6666679" x2="469.3333435" y1="256.0005188" y2="256.0005188"><stop offset="0" style="stop-color:#76B83F"/><stop offset="1" style="stop-color:#8DC63F"/></linearGradient><path d="M256,469.3338623c-117.6314697,0-213.3333282-95.7023926-213.3333282-213.3333435    c0-117.6314545,95.7018585-213.333313,213.3333282-213.333313c117.6357422,0,213.3333435,95.7018661,213.3333435,213.333313    C469.3333435,373.6314697,373.6357422,469.3338623,256,469.3338623z" fill="url(#SVGID_2_)"/></g><polygon opacity="0.3" points="259.8352051,182.7498627 229,152.7503967 144.0005341,152.7503967 144.0005341,298.9994812    144.0005341,301.683197 253.1797333,301.683197 220.552536,269.0559998 227.622406,261.9855957 272.3200073,306.683197    227.622406,351.3797302 220.552536,344.3098755 253.1797333,311.683197 144.0005341,311.683197 144.0005341,375.249054    264,375.249054 383.9995728,375.249054 383.9995728,298.9994812 383.9995728,182.7498627  "/><polygon fill="#FFFFFF" points="251.8352051,174.7498627 221,144.7503967 136.0005341,144.7503967 136.0005341,290.9994812    136.0005341,293.683197 245.1797333,293.683197 212.552536,261.0559998 219.622406,253.9855957 264.3200073,298.683197    219.622406,343.3797302 212.552536,336.3098755 245.1797333,303.683197 136.0005341,303.683197 136.0005341,367.249054    256,367.249054 375.9995728,367.249054 375.9995728,290.9994812 375.9995728,174.7498627  "/></g></svg>