<?xml version="1.0" encoding="iso-8859-1"?>
<!-- Generator: Adobe Illustrator 19.0.0, SVG Export Plug-In . SVG Version: 6.00 Build 0)  -->
<svg version="1.1" id="Layer_1" xmlns="http://www.w3.org/2000/svg" xmlns:xlink="http://www.w3.org/1999/xlink" x="0px" y="0px"
	 viewBox="0 0 512 512" style="enable-background:new 0 0 512 512;" xml:space="preserve">
<g>
	<g>
		<g>
			<path d="M405.333,192h-42.667C339.109,192,320,211.109,320,234.667v42.667C320,300.891,339.109,320,362.667,320h42.667
				C428.891,320,448,300.891,448,277.333v-42.667C448,211.109,428.891,192,405.333,192z M405.333,277.333h-42.667v-42.667h42.667
				V277.333z"/>
			<path d="M192,170.667c0,23.558,19.109,42.667,42.667,42.667h42.667c23.558,0,42.667-19.109,42.667-42.667V128
				c0-23.558-19.109-42.667-42.667-42.667h-42.667C211.109,85.333,192,104.442,192,128V170.667z M234.667,128h42.667v42.667h-42.667
				V128z"/>
			<path d="M106.667,128h42.667C172.891,128,192,108.891,192,85.333V42.667C192,19.109,172.891,0,149.333,0h-42.667
				C83.109,0,64,19.109,64,42.667v42.667C64,108.891,83.109,128,106.667,128z M106.667,42.667h42.667v42.667h-42.667V42.667z"/>
			<path d="M149.333,384h-42.667C83.109,384,64,403.109,64,426.667v42.667C64,492.891,83.109,512,106.667,512h42.667
				C172.891,512,192,492.891,192,469.333v-42.667C192,403.109,172.891,384,149.333,384z M149.333,469.333h-42.667v-42.667h42.667
				V469.333z"/>
			<path d="M277.333,298.667h-42.667c-23.558,0-42.667,19.109-42.667,42.667V384c0,23.558,19.109,42.667,42.667,42.667h42.667
				C300.891,426.667,320,407.558,320,384v-42.667C320,317.775,300.891,298.667,277.333,298.667z M277.333,384h-42.667v-42.667
				h42.667V384z"/>
		</g>
	</g>
</g>
<g>
</g>
<g>
</g>
<g>
</g>
<g>
</g>
<g>
</g>
<g>
</g>
<g>
</g>
<g>
</g>
<g>
</g>
<g>
</g>
<g>
</g>
<g>
</g>
<g>
</g>
<g>
</g>
<g>
</g>
</svg>
