<?xml version="1.0" encoding="iso-8859-1"?>
<!-- Generator: Adobe Illustrator 16.0.0, SVG Export Plug-In . SVG Version: 6.00 Build 0)  -->
<!DOCTYPE svg PUBLIC "-//W3C//DTD SVG 1.1//EN" "http://www.w3.org/Graphics/SVG/1.1/DTD/svg11.dtd">
<svg version="1.1" id="Capa_1" xmlns="http://www.w3.org/2000/svg" xmlns:xlink="http://www.w3.org/1999/xlink" x="0px" y="0px"
	 width="59.4px" height="59.4px" viewBox="0 0 59.4 59.4" style="enable-background:new 0 0 59.4 59.4;" xml:space="preserve">
<g>
	<g>
		<path d="M55.661,24.661c-3.301-3.303-6.603-6.606-9.903-9.908c-1.97-1.971-3.892-4.68-6.5-5.764
			c-0.012-0.005-0.029-0.003-0.042-0.007c-0.032-0.026-0.103-0.044-0.238-0.044c-5.996,0-11.994,0-17.991,0
			c-0.977,0-2.519,0.057-3.171,0.852c-2.035,2.476,1.589,4.718,3.24,6.371c1.269,1.269,2.537,2.539,3.806,3.808
			c0.689,0.691,2.327,1.066,1.835,1.066c-3.147,0-6.294,0-9.441,0c-4.771,0-11.104-1.193-15.714,0.427
			c-1.806,0.634-1.525,2.529-1.525,4.048c0,3.576,0,7.151,0,10.729c0,4.029,10.641,2.27,12.941,2.27c3.485,0,6.97,0,10.455,0
			c3.666,0,1.619,1.189-0.361,3.173c-2.272,2.274-10.013,8.767-2.356,8.767c4.165,0,8.329,0,12.492,0
			c2.598,0,4.59,0.192,6.974-0.796c1.595-0.661,3.154-3.022,4.335-4.205c3.318-3.321,6.637-6.642,9.956-9.963
			c1.22-1.222,4.016-3.074,4.691-4.706C60.267,28.063,57.451,26.451,55.661,24.661z M49.362,22.184
			c0.172-0.28,0.345-0.561,0.518-0.841c0.174,0.174,0.347,0.347,0.521,0.521c-1.362,2.747-2.77,5.469-4.238,8.16
			c-0.265,0.484-0.328,0.456-0.132-0.061c0.765-2.021,1.589-4.017,2.423-6.002C48.667,23.452,49.073,22.655,49.362,22.184z
			 M41.421,15.05c0.247-0.486,0.495-0.974,0.743-1.46c0.011-0.021,0.011-0.047,0.021-0.069c0.268,0.293,0.532,0.582,0.796,0.868
			c-0.18,0.112-0.389,0.216-0.581,0.29c-0.299,0.114-0.542,0.241-0.622,0.326c-0.142,0.15-0.275,0.307-0.408,0.465
			C41.147,15.731,41.17,15.543,41.421,15.05z M39.1,10.595c0.027,0.02,0.057,0.036,0.083,0.056c-0.543,0.873-1.088,1.746-1.63,2.62
			c-0.29,0.47-0.292,0.468-0.009-0.007C38.073,12.38,38.592,11.491,39.1,10.595z M33.138,9.682c0.522,0,1.045,0,1.567,0
			c-0.196,0.125-0.375,0.265-0.497,0.425c-0.892,1.179-1.783,2.358-2.659,3.55c-0.328,0.444-0.386,0.409-0.135-0.083
			c0.569-1.117,1.128-2.238,1.679-3.365C33.191,10.007,33.189,9.832,33.138,9.682z M22.461,10.184
			c-0.554,0.993-1.108,1.986-1.665,2.977c-0.032,0.058-0.043,0.126-0.064,0.189c-0.34-0.375-0.665-0.765-0.949-1.146
			c0.011-0.016,0.022-0.026,0.033-0.043c0.421-0.672,0.846-1.342,1.272-2.01c0.114-0.178,0.145-0.334,0.135-0.47
			c0.574,0,1.147,0,1.722,0C22.744,9.826,22.567,9.994,22.461,10.184z M26.529,18.859c-1.075-1.133-2.419-2.171-3.411-3.115
			c0.042-0.047,0.091-0.08,0.126-0.14c1.084-1.835,2.19-3.654,3.329-5.451c0.112-0.179,0.132-0.335,0.106-0.471
			c1.585,0,3.17,0,4.755,0c-0.196,0.15-0.369,0.327-0.468,0.528C29.552,13.123,28.061,16.001,26.529,18.859z M1.916,27.8
			c0.776-1.85,1.591-3.683,2.452-5.492c0.096-0.202,0.099-0.379,0.053-0.529c0.633,0,1.266,0,1.898,0
			c-0.198,0.145-0.375,0.314-0.479,0.508c-1.396,2.598-2.732,5.224-3.998,7.886c0.053-0.75,0.105-1.353,0.105-1.643
			C1.947,28.352,1.934,28.099,1.916,27.8z M1.841,34.965c1.825-4.332,3.905-8.538,6.122-12.678c0.104-0.194,0.11-0.363,0.068-0.509
			c1.302,0,2.603,0,3.904,0c-0.199,0.138-0.38,0.296-0.493,0.477c-2.939,4.681-5.995,9.273-9.457,13.572
			C1.923,35.558,1.878,35.267,1.841,34.965z M7.003,37.764c-1.13,0-2.261,0-3.391,0c-0.352,0-0.639-0.127-0.875-0.35
			c0.063-0.054,0.134-0.1,0.186-0.162c3.959-4.699,7.373-9.794,10.642-14.998c0.109-0.176,0.129-0.33,0.105-0.465
			c0.72,0.017,1.48,0.06,2.269,0.112c-0.129,0.114-0.242,0.238-0.319,0.373c-2.854,4.992-5.715,9.978-8.538,14.988
			C6.975,37.455,6.966,37.621,7.003,37.764z M15.853,37.764c-1.506,0-3.012,0-4.518,0c-0.346,0-0.691,0-1.037,0
			c0.199-0.141,0.378-0.301,0.489-0.483c2.97-4.934,5.769-9.983,8.61-15.002c0.028-0.051,0.029-0.095,0.047-0.143
			c1.854,0.099,3.72,0.115,5.43-0.132c-0.075,0.089-0.148,0.181-0.203,0.28c-1.618,2.941-3.271,5.865-4.945,8.781
			c-1.29,2.053-2.546,4.126-3.781,6.211C15.833,37.461,15.82,37.623,15.853,37.764z M20.569,37.764c-0.935,0-1.869,0-2.804,0
			c0.199-0.143,0.377-0.307,0.485-0.494c1.202-2.087,2.405-4.173,3.604-6.262c4.504-7.172,9.336-14.136,14.427-20.899
			c0.121-0.161,0.152-0.302,0.146-0.427c0.368,0,0.737,0,1.105,0c0.017,0.007,0.032,0.018,0.049,0.024
			c-0.117,0.14-0.234,0.299-0.334,0.479c-4.125,7.432-9.09,14.42-13.443,21.713c-1.062,1.781-2.108,3.575-3.15,5.372
			C20.546,37.459,20.534,37.623,20.569,37.764z M22.835,37.283c-0.112,0.184-0.128,0.342-0.099,0.48c-0.157,0-0.315,0-0.473,0
			c0.199-0.143,0.378-0.307,0.486-0.493c1.721-2.972,3.462-5.927,5.254-8.846c2.477-4.033,5.091-7.984,7.596-11.994
			c0.293-0.468,0.294-0.468,0.006,0.003C31.341,23.38,27.099,30.338,22.835,37.283z M24.509,37.722
			c0.173-0.13,0.331-0.273,0.432-0.438c5.184-8.446,10.328-16.917,15.533-25.351c0.025-0.04,0.033-0.087,0.054-0.13
			c0.102,0.098,0.206,0.192,0.307,0.293c-0.023,0.033-0.053,0.053-0.073,0.092c-3.487,6.86-7.018,13.698-10.741,20.421
			c-0.981,1.752-1.964,3.495-2.974,5.199C26.238,37.646,25.359,37.678,24.509,37.722z M20.022,49.176
			c-1.138-0.528-1.395-1.506,0.374-3.274c1.068-1.069,2.593-2.265,4.008-3.541c-0.067,0.117-0.137,0.231-0.202,0.351
			c-0.402,0.672-0.805,1.346-1.213,2.014C22.004,46.211,21.013,47.694,20.022,49.176z M22.886,49.729
			c-0.183-0.012-0.363-0.023-0.542-0.041c0.189-0.145,0.358-0.311,0.457-0.501c0.965-1.851,1.959-3.687,2.98-5.513
			c4.074-6.159,8.126-12.336,12.21-18.491c0.306-0.46,0.377-0.424,0.15,0.081c-0.471,1.052-0.964,2.091-1.481,3.118
			c-3.623,6.132-7.363,12.188-11.486,17.997c-0.712,0.97-1.429,1.933-2.147,2.894C22.898,49.446,22.868,49.598,22.886,49.729z
			 M31.682,49.95c-1.708-0.114-3.248-0.248-3.975-0.248c-0.654,0-1.857,0.068-3.16,0.07c0.243-0.138,0.464-0.306,0.607-0.498
			c0.712-0.953,1.415-1.913,2.104-2.881c4.342-5.902,8.5-11.95,11.76-18.449c2.162-3.666,4.287-7.356,6.428-11.037
			c0.932,0.932,1.863,1.864,2.795,2.797c-0.116,0.288-0.233,0.578-0.353,0.867c-0.864,1.67-1.754,3.33-2.649,4.984
			c-4.678,7.807-9.215,15.698-13.655,23.645C31.402,49.526,31.463,49.799,31.682,49.95z M41.664,36.146
			c-0.361,1.031-0.729,2.062-1.095,3.091c-0.187,0.521-0.573,1.323-0.869,1.789c-1.115,1.756-2.284,3.519-3.516,5.254
			c-0.318,0.451-0.376,0.416-0.121-0.073c1.359-2.613,2.736-5.22,4.159-7.805c0.428-0.775,0.856-1.551,1.285-2.326
			C41.776,35.594,41.846,35.625,41.664,36.146z M37.644,47.396c-0.211,0.58-0.422,1.159-0.633,1.738
			c-0.161,0.44,0.011,0.793,0.369,0.895c-0.916,0.104-2.151,0.098-3.449,0.045h0.312c0.552,0,1.278-0.35,1.618-0.785
			c0.521-0.67,1.032-1.346,1.536-2.025C37.723,46.819,37.832,46.877,37.644,47.396z M40.155,48.222
			c-0.353,0.354-0.706,0.706-1.06,1.06c0.024-0.06,0.048-0.117,0.072-0.182c1.011-2.789,2.023-5.578,3.024-8.371
			c0.187-0.521,0.581-1.318,0.878-1.783c3.21-5.033,6.108-10.268,8.798-15.611c0.101,0.101,0.201,0.201,0.301,0.302
			C48.015,31.75,44.084,39.985,40.155,48.222z M53.86,30.986c-0.995,2.115-1.944,4.251-2.875,6.398
			c-1.678,1.678-3.354,3.355-5.03,5.033c-0.572,0.571-1.145,1.144-1.716,1.717c3.056-6.395,6.131-12.779,9.336-19.093
			c0.267,0.267,0.533,0.533,0.8,0.8c0.459,0.459,0.901,0.891,1.296,1.311C55.067,28.43,54.461,29.709,53.86,30.986z"/>
	</g>
</g>
<g>
</g>
<g>
</g>
<g>
</g>
<g>
</g>
<g>
</g>
<g>
</g>
<g>
</g>
<g>
</g>
<g>
</g>
<g>
</g>
<g>
</g>
<g>
</g>
<g>
</g>
<g>
</g>
<g>
</g>
</svg>
